<?xml version="1.0" encoding="utf-8"?>
<!-- Generator: Adobe Adobe Illustrator 29.1.0, SVG Export Plug-In . SVG Version: 6.00 Build 0)  -->
<svg version="1.1" id="Layer_1" xmlns="http://www.w3.org/2000/svg" xmlns:xlink="http://www.w3.org/1999/xlink" x="0px" y="0px"
	 width="500px" height="500px" viewBox="0 0 500 500" style="enable-background:new 0 0 500 500;" xml:space="preserve">
<style type="text/css">
	.st0{fill:#FFFFFF;}
	.st1{fill:#15DC96;}
</style>
<path class="st1" d="M416.1,87.9c-44.4-43.2-103.4-67-166.1-67c-62.7,0-121.7,23.8-166.1,67C39.5,131.2,15,188.8,15,250
	s24.5,118.8,68.9,162.1c44.4,43.2,103.4,67,166.1,67c62.7,0,121.7-23.8,166.1-67c44.5-43.3,69-100.8,69-162.1
	S460.5,131.2,416.1,87.9z M73.1,365c-22.7-32.9-36-72.5-36-115c0-108.3,86-197.3,195-206.2l-31.7,67.1h-64.8
	c-18.5,0-33.5,15-33.5,33.5V365H73.1z M218.5,133.1h63V365h-63V133.1z M196.4,133.1V365h-72V144.4c0-6.2,5.1-11.3,11.3-11.3H196.4z
	 M250,456.9c-63.3,0-120.2-27-159.3-69.8h318.5C370.2,429.9,313.3,456.9,250,456.9z M303.6,365V133.1h60.8c6.2,0,11.3,5.1,11.3,11.3
	V365H303.6z M397.9,365V144.4c0-18.5-15-33.5-33.5-33.5H224.9l32-67.7c114.2,3.6,205.9,95,205.9,206.8c0,42.5-13.3,82.1-36,115
	H397.9z"/>
</svg>
